M48
; Solar LoRa ESP32-S3 Drill File
FMAT,2
METRIC,TZ
T1C0.300
T2C0.600
T3C1.000
%
G90
G05
T1
X8.500Y26.000
X8.500Y28.000
X8.500Y30.000
X11.000Y26.000
X11.000Y28.000
X11.000Y30.000
X13.500Y26.000
X13.500Y28.000
X13.500Y30.000
X9.500Y45.000
X9.500Y47.000
X11.000Y45.000
X11.000Y47.000
X12.500Y45.000
X12.500Y47.000
X5.500Y9.000
X16.500Y9.000
X8.000Y1.500
X14.000Y1.500
X20.500Y36.500
X20.500Y40.500
X1.000Y5.000
X21.000Y5.000
X1.000Y10.000
X21.000Y10.000
X1.000Y15.000
X21.000Y15.000
X1.000Y20.000
X21.000Y20.000
X1.000Y25.000
X21.000Y25.000
X1.000Y30.000
X21.000Y30.000
X1.000Y35.000
X21.000Y35.000
X1.000Y40.000
X21.000Y40.000
X1.000Y45.000
X21.000Y45.000
X1.000Y50.000
X21.000Y50.000
X1.000Y55.000
X21.000Y55.000
X8.000Y10.000
X14.000Y18.000
X9.000Y19.500
X7.000Y47.000
X12.000Y54.000
X10.000Y3.000
X2.500Y38.000
X14.500Y38.000
X12.270Y39.000
X11.750Y39.000
X13.540Y40.500
X11.250Y40.500
X19.000Y11.800
X19.000Y13.800
T2
X7.000Y2.000
X15.000Y2.000
T3
X8.450Y56.500
X13.550Y56.500
M30
