G04 Solar-LoRa-ESP32S3*
%FSLAX46Y46*%
%MOMM*%
%ADD10R,1.500000X0.700000*%
%ADD11R,0.700000X1.500000*%
%ADD12R,6.000000X6.000000*%
%ADD13R,0.700000X0.250000*%
%ADD14R,0.250000X0.700000*%
%ADD15R,2.400000X2.400000*%
%ADD16R,1.500000X0.600000*%
%ADD17R,1.000000X0.550000*%
%ADD18R,0.300000X1.000000*%
%ADD19O,1.200000X1.800000*%
%ADD20R,2.000000X1.000000*%
%ADD21R,1.500000X1.500000*%
%ADD22C,1.800000*%
%ADD23R,0.800000X1.000000*%
%ADD24R,0.900000X0.800000*%
%ADD25R,0.500000X0.500000*%
%ADD26R,1.000000X1.200000*%
%ADD27R,0.600000X0.500000*%
%ADD28C,0.600000*%
%ADD29C,0.400000*%
%ADD30C,0.200000*%
%ADD31C,0.720000*%
%LPD*%
D10*
X2800000Y15745000D03*
D10*
X2800000Y17015000D03*
D10*
X2800000Y18285000D03*
D10*
X2800000Y19555000D03*
D10*
X2800000Y20825000D03*
D10*
X2800000Y22095000D03*
D10*
X2800000Y23365000D03*
D10*
X2800000Y24635000D03*
D10*
X2800000Y25905000D03*
D10*
X2800000Y27175000D03*
D10*
X2800000Y28445000D03*
D10*
X2800000Y29715000D03*
D10*
X2800000Y30985000D03*
D10*
X2800000Y32255000D03*
D11*
X4650000Y34750000D03*
D11*
X5920000Y34750000D03*
D11*
X7190000Y34750000D03*
D11*
X8460000Y34750000D03*
D11*
X9730000Y34750000D03*
D11*
X11000000Y34750000D03*
D11*
X12270000Y34750000D03*
D11*
X13540000Y34750000D03*
D11*
X14810000Y34750000D03*
D11*
X16080000Y34750000D03*
D11*
X17350000Y34750000D03*
D10*
X19200000Y15745000D03*
D10*
X19200000Y17015000D03*
D10*
X19200000Y18285000D03*
D10*
X19200000Y19555000D03*
D10*
X19200000Y20825000D03*
D10*
X19200000Y22095000D03*
D10*
X19200000Y23365000D03*
D10*
X19200000Y24635000D03*
D10*
X19200000Y25905000D03*
D10*
X19200000Y27175000D03*
D10*
X19200000Y28445000D03*
D10*
X19200000Y29715000D03*
D10*
X19200000Y30985000D03*
D12*
X11000000Y27500000D03*
D13*
X9000000Y44750000D03*
D13*
X9000000Y45250000D03*
D13*
X9000000Y45750000D03*
D13*
X9000000Y46250000D03*
D13*
X9000000Y46750000D03*
D13*
X9000000Y47250000D03*
D14*
X9750000Y48000000D03*
D14*
X10250000Y48000000D03*
D14*
X10750000Y48000000D03*
D14*
X11250000Y48000000D03*
D14*
X11750000Y48000000D03*
D14*
X12250000Y48000000D03*
D13*
X13000000Y47250000D03*
D13*
X13000000Y46750000D03*
D13*
X13000000Y46250000D03*
D13*
X13000000Y45750000D03*
D13*
X13000000Y45250000D03*
D13*
X13000000Y44750000D03*
D14*
X12250000Y44000000D03*
D14*
X11750000Y44000000D03*
D14*
X11250000Y44000000D03*
D14*
X10750000Y44000000D03*
D14*
X10250000Y44000000D03*
D14*
X9750000Y44000000D03*
D15*
X11000000Y46000000D03*
D16*
X2800000Y6095000D03*
D16*
X2800000Y7365000D03*
D16*
X2800000Y8635000D03*
D16*
X2800000Y9905000D03*
D16*
X8200000Y6095000D03*
D16*
X8200000Y7365000D03*
D16*
X8200000Y8635000D03*
D16*
X8200000Y9905000D03*
D17*
X15200000Y7050000D03*
D17*
X15200000Y8000000D03*
D17*
X15200000Y8950000D03*
D17*
X17800000Y7525000D03*
D17*
X17800000Y8475000D03*
D18*
X7750000Y-500000D03*
D18*
X8750000Y-500000D03*
D18*
X10750000Y-500000D03*
D18*
X11250000Y-500000D03*
D18*
X11750000Y-500000D03*
D18*
X13250000Y-500000D03*
D18*
X14250000Y-500000D03*
D18*
X14250000Y4500000D03*
D18*
X13250000Y4500000D03*
D18*
X11250000Y4500000D03*
D18*
X10750000Y4500000D03*
D18*
X10250000Y4500000D03*
D18*
X8750000Y4500000D03*
D18*
X7750000Y4500000D03*
D19*
X7000000Y2000000D03*
D19*
X15000000Y2000000D03*
D20*
X1200000Y14000000D03*
D20*
X1200000Y16000000D03*
D20*
X1200000Y4500000D03*
D20*
X1200000Y6500000D03*
D21*
X11000000Y56500000D03*
D22*
X8450000Y56500000D03*
D22*
X13550000Y56500000D03*
D23*
X17700000Y36000000D03*
D23*
X21300000Y36000000D03*
D23*
X17700000Y40000000D03*
D23*
X21300000Y40000000D03*
D24*
X8600000Y5500000D03*
D24*
X11400000Y5500000D03*
D24*
X7400000Y5500000D03*
D24*
X4600000Y5500000D03*
D24*
X18250000Y12000000D03*
D24*
X19750000Y12000000D03*
D24*
X18250000Y14000000D03*
D24*
X19750000Y14000000D03*
D25*
X2600000Y10500000D03*
D25*
X3400000Y10500000D03*
D25*
X7600000Y10500000D03*
D25*
X8400000Y10500000D03*
D25*
X19000000Y10600000D03*
D25*
X19000000Y11400000D03*
D25*
X19000000Y12600000D03*
D25*
X19000000Y13400000D03*
D25*
X14000000Y14600000D03*
D25*
X14000000Y15400000D03*
D25*
X14000000Y16600000D03*
D25*
X14000000Y17400000D03*
D25*
X17000000Y17600000D03*
D25*
X17000000Y18400000D03*
D25*
X19000000Y17600000D03*
D25*
X19000000Y18400000D03*
D25*
X8600000Y3500000D03*
D25*
X9400000Y3500000D03*
D25*
X12600000Y3500000D03*
D25*
X13400000Y3500000D03*
D25*
X5100000Y6500000D03*
D25*
X5900000Y6500000D03*
D26*
X4650000Y11500000D03*
D26*
X6350000Y11500000D03*
D25*
X16100000Y6500000D03*
D25*
X16900000Y6500000D03*
D26*
X15650000Y10000000D03*
D26*
X17350000Y10000000D03*
D25*
X7600000Y19000000D03*
D25*
X8400000Y19000000D03*
D26*
X4150000Y19000000D03*
D26*
X5850000Y19000000D03*
D25*
X7600000Y44000000D03*
D25*
X8400000Y44000000D03*
D25*
X13600000Y44000000D03*
D25*
X14400000Y44000000D03*
D25*
X7600000Y48000000D03*
D25*
X8400000Y48000000D03*
D25*
X13600000Y48000000D03*
D25*
X14400000Y48000000D03*
D25*
X10600000Y51000000D03*
D25*
X11400000Y51000000D03*
D25*
X10600000Y54000000D03*
D25*
X11400000Y54000000D03*
D25*
X10600000Y43000000D03*
D25*
X11400000Y43000000D03*
D25*
X13000000Y52100000D03*
D25*
X13000000Y52900000D03*
D27*
X6250000Y45450000D03*
D27*
X6250000Y46550000D03*
D27*
X7750000Y46550000D03*
D27*
X7750000Y45450000D03*
D28*
X8500000Y26000000D03*
D28*
X8500000Y28000000D03*
D28*
X8500000Y30000000D03*
D28*
X11000000Y26000000D03*
D28*
X11000000Y28000000D03*
D28*
X11000000Y30000000D03*
D28*
X13500000Y26000000D03*
D28*
X13500000Y28000000D03*
D28*
X13500000Y30000000D03*
D28*
X9500000Y45000000D03*
D28*
X9500000Y47000000D03*
D28*
X11000000Y45000000D03*
D28*
X11000000Y47000000D03*
D28*
X12500000Y45000000D03*
D28*
X12500000Y47000000D03*
D28*
X5500000Y9000000D03*
D28*
X16500000Y9000000D03*
D28*
X8000000Y1500000D03*
D28*
X14000000Y1500000D03*
D28*
X20500000Y36500000D03*
D28*
X20500000Y40500000D03*
D28*
X1000000Y5000000D03*
D28*
X21000000Y5000000D03*
D28*
X1000000Y10000000D03*
D28*
X21000000Y10000000D03*
D28*
X1000000Y15000000D03*
D28*
X21000000Y15000000D03*
D28*
X1000000Y20000000D03*
D28*
X21000000Y20000000D03*
D28*
X1000000Y25000000D03*
D28*
X21000000Y25000000D03*
D28*
X1000000Y30000000D03*
D28*
X21000000Y30000000D03*
D28*
X1000000Y35000000D03*
D28*
X21000000Y35000000D03*
D28*
X1000000Y40000000D03*
D28*
X21000000Y40000000D03*
D28*
X1000000Y45000000D03*
D28*
X21000000Y45000000D03*
D28*
X1000000Y50000000D03*
D28*
X21000000Y50000000D03*
D28*
X1000000Y55000000D03*
D28*
X21000000Y55000000D03*
D28*
X2500000Y38000000D03*
D28*
X14500000Y38000000D03*
D28*
X12270000Y39000000D03*
D28*
X11750000Y39000000D03*
D28*
X13540000Y40500000D03*
D28*
X11250000Y40500000D03*
D28*
X19000000Y11800000D03*
D28*
X19000000Y13800000D03*
D29*
X8750000Y-500000D02*
X8750000Y2000000D01*
X8600000Y3000000D01*
X8600000Y5500000D01*
D29*
X1200000Y4500000D02*
X1200000Y5500000D01*
X4600000Y5500000D01*
D29*
X7400000Y5500000D02*
X7400000Y5500000D01*
X11400000Y5500000D01*
D29*
X11400000Y5500000D02*
X11400000Y7500000D01*
X8200000Y7500000D01*
X8200000Y9905000D01*
D29*
X7900000Y5500000D02*
X5100000Y5500000D01*
X5100000Y6500000D01*
D29*
X2800000Y8635000D02*
X4800000Y8635000D01*
D29*
X4800000Y8635000D02*
X4800000Y14000000D01*
X1200000Y14000000D01*
D29*
X4800000Y8635000D02*
X4650000Y8635000D01*
X4650000Y11500000D01*
D29*
X4800000Y8635000D02*
X4800000Y7000000D01*
X15200000Y7000000D01*
X15200000Y7050000D01*
D29*
X15200000Y7050000D02*
X14700000Y7050000D01*
X14700000Y8950000D01*
X15200000Y8950000D01*
D29*
X15200000Y7050000D02*
X16100000Y7050000D01*
X16100000Y6500000D01*
D29*
X4800000Y8635000D02*
X14000000Y8635000D01*
X14000000Y14600000D01*
D29*
X14000000Y14600000D02*
X14000000Y20000000D01*
X3000000Y20000000D01*
X3000000Y46750000D01*
X9000000Y46750000D01*
D29*
X9000000Y46750000D02*
X9000000Y47250000D01*
D29*
X13600000Y44000000D02*
X13600000Y46750000D01*
X9000000Y46750000D01*
D29*
X9000000Y47250000D02*
X8100000Y47250000D01*
X8100000Y48000000D01*
X7600000Y48000000D01*
D29*
X17800000Y7525000D02*
X17800000Y7525000D01*
D29*
X17800000Y7525000D02*
X15650000Y7525000D01*
X15650000Y10000000D01*
D29*
X17800000Y7525000D02*
X17800000Y17600000D01*
X17000000Y17600000D01*
X17000000Y17600000D01*
D29*
X17800000Y17600000D02*
X19000000Y17600000D01*
X19000000Y17600000D01*
D29*
X17800000Y17600000D02*
X17800000Y17015000D01*
X2800000Y17015000D01*
D29*
X2800000Y17015000D02*
X2800000Y19000000D01*
X7600000Y19000000D01*
D29*
X7600000Y19000000D02*
X4150000Y19000000D01*
D29*
X4150000Y19000000D02*
X3150000Y19000000D01*
X3150000Y44000000D01*
X7600000Y44000000D01*
D29*
X7600000Y44000000D02*
X7600000Y44750000D01*
X9000000Y44750000D01*
D29*
X6250000Y45450000D02*
X6250000Y43950000D01*
X7100000Y43950000D01*
X7100000Y44000000D01*
D30*
X7190000Y34750000D02*
X7190000Y36000000D01*
X15000000Y36000000D01*
X15000000Y45250000D01*
X13000000Y45250000D01*
D30*
X8460000Y34750000D02*
X8460000Y36500000D01*
X15500000Y36500000D01*
X15500000Y45750000D01*
X13000000Y45750000D01*
D30*
X9730000Y34750000D02*
X9730000Y37000000D01*
X16000000Y37000000D01*
X16000000Y44750000D01*
X13000000Y44750000D01*
D30*
X2800000Y29715000D02*
X2500000Y29715000D01*
X2500000Y38000000D01*
D30*
X14500000Y38000000D02*
X14500000Y46250000D01*
X13000000Y46250000D01*
D30*
X11000000Y34750000D02*
X11000000Y37500000D01*
X12250000Y37500000D01*
X12250000Y44000000D01*
D30*
X12270000Y34750000D02*
X12270000Y39000000D01*
D30*
X11750000Y39000000D02*
X11750000Y44000000D01*
D30*
X13540000Y34750000D02*
X13540000Y40500000D01*
D30*
X11250000Y40500000D02*
X11250000Y44000000D01*
D30*
X11250000Y-500000D02*
X11250000Y1500000D01*
X1500000Y1500000D01*
X1500000Y32255000D01*
X2800000Y32255000D01*
D30*
X11750000Y-500000D02*
X12250000Y-500000D01*
X12250000Y1000000D01*
X1000000Y1000000D01*
X1000000Y30985000D01*
X2800000Y30985000D01*
D30*
X14000000Y15400000D02*
X14000000Y16600000D01*
D30*
X14000000Y15400000D02*
X16080000Y15400000D01*
X16080000Y34750000D01*
D30*
X17000000Y18400000D02*
X2800000Y18285000D01*
D30*
X2800000Y18285000D02*
X1800000Y18285000D01*
X1800000Y35000000D01*
X17700000Y35000000D01*
X17700000Y36000000D01*
D30*
X19000000Y18400000D02*
X19000000Y34750000D01*
X14810000Y34750000D01*
D30*
X14810000Y34750000D02*
X15810000Y34750000D01*
X15810000Y39000000D01*
X17700000Y39000000D01*
X17700000Y40000000D01*
D30*
X19200000Y24635000D02*
X19700000Y24635000D01*
X19700000Y14000000D01*
X18250000Y14000000D01*
D30*
X8200000Y7365000D02*
X9200000Y7365000D01*
X9200000Y11500000D01*
X17250000Y11500000D01*
X17250000Y12000000D01*
X18250000Y12000000D01*
D30*
X10750000Y-500000D02*
X10750000Y3500000D01*
X8600000Y3500000D01*
D30*
X11250000Y4500000D02*
X11250000Y3500000D01*
X12600000Y3500000D01*
D30*
X2800000Y6095000D02*
X2800000Y10500000D01*
X2600000Y10500000D01*
D30*
X2800000Y9905000D02*
X2800000Y10500000D01*
X7600000Y10500000D01*
D30*
X8200000Y8635000D02*
X8200000Y7635000D01*
X8200000Y9905000D01*
D30*
X7750000Y45450000D02*
X10750000Y45450000D01*
X10750000Y48000000D01*
D30*
X9000000Y45750000D02*
X8500000Y45750000D01*
X8500000Y43000000D01*
X10600000Y43000000D01*
D30*
X11400000Y43000000D02*
X11900000Y43000000D01*
X11900000Y46250000D01*
X9000000Y46250000D01*
D30*
X9000000Y45750000D02*
X8000000Y45750000D01*
X8000000Y47500000D01*
X13600000Y47500000D01*
X13600000Y48000000D01*
D31*
X13000000Y47250000D02*
X14000000Y47250000D01*
X14000000Y49500000D01*
X10600000Y49500000D01*
X10600000Y51000000D01*
D31*
X11400000Y51000000D02*
X11400000Y52000000D01*
X13000000Y52000000D01*
X13000000Y52100000D01*
D31*
X11400000Y52000000D02*
X10600000Y54000000D01*
D31*
X11400000Y52000000D02*
X11400000Y55000000D01*
X11000000Y55000000D01*
X11000000Y56500000D01*
M02*
